<svg xmlns="http://www.w3.org/2000/svg" width="18" height="14" fill="none" viewBox="0 0 18 14"><path stroke="#FAFAFA" stroke-linecap="round" stroke-linejoin="round" stroke-width="1.2" d="M2.6 1h12.8c.424.001.83.16 1.13.44.3.282.469.663.47 1.06v9c-.001.398-.17.778-.47 1.06-.3.28-.706.439-1.13.44H2.6a1.66 1.66 0 0 1-1.13-.44A1.458 1.458 0 0 1 1 11.5v-9c.001-.397.17-.778.47-1.06.3-.28.706-.439 1.13-.44v0Z"/><path stroke="#FAFAFA" stroke-linecap="round" stroke-linejoin="round" stroke-width="1.2" d="M17 2.5 9 7.75 1 2.5"/></svg>