<svg width="14" height="13" viewBox="0 0 14 13" fill="none" xmlns="http://www.w3.org/2000/svg">
<path d="M1.62669 10.5323C1.67264 10.1188 1.69561 9.91207 1.75816 9.71883C1.81367 9.54739 1.89208 9.38423 1.99129 9.23379C2.10311 9.06422 2.2502 8.91713 2.54438 8.62295L9.91733 1.25001C10.5617 0.605676 11.6063 0.605677 12.2507 1.25001V1.25001C12.895 1.89434 12.895 2.93901 12.2507 3.58334L4.87771 10.9563C4.58353 11.2505 4.43644 11.3976 4.26687 11.5094C4.11643 11.6086 3.95327 11.687 3.78183 11.7425C3.58859 11.8051 3.38184 11.828 2.96835 11.874L1.45898 12.0417L1.62669 10.5323Z" stroke="#23262A" stroke-width="1.3" stroke-linecap="round" stroke-linejoin="round"/>
</svg>
