<?xml version="1.0" encoding="utf-8"?>
<svg version="1.1" x="0px" y="0px" viewBox="0 0 1000 1000" enable-background="new 0 0 1000 1000" xml:space="preserve" fill='none'>
<g><path d="M507.5,287.8v-6.4h-15.1v6.4l0,0L296.1,464.6l10.1,11.2l186.3-167.7v395.5h15.1V308.1l186.3,167.7l10.1-11.2L507.5,287.8z M990,500c0-270.6-219.4-490-490-490S10,229.4,10,500s219.4,490,490,490S990,770.6,990,500z M25.1,500C25.1,237.7,237.7,25.1,500,25.1S974.9,237.7,974.9,500S762.3,974.9,500,974.9S25.1,762.3,25.1,500z"/></g>
</svg>