<svg width="20" height="17" viewBox="0 0 20 17" fill="none" xmlns="http://www.w3.org/2000/svg">
<path d="M20 2.39583C19.2498 2.72181 18.456 2.93658 17.6438 3.03333C18.4974 2.53349 19.1393 1.73941 19.4492 0.800006C18.6421 1.27192 17.7606 1.60303 16.8425 1.77917C16.4559 1.37398 15.9909 1.05163 15.4758 0.831733C14.9607 0.611834 14.4063 0.498972 13.8463 0.500007C11.5788 0.500007 9.74375 2.30833 9.74375 4.53749C9.74214 4.84756 9.77767 5.15671 9.84958 5.45832C8.22362 5.3821 6.63147 4.96732 5.17499 4.24052C3.71852 3.51372 2.42979 2.4909 1.39125 1.2375C1.02691 1.85172 0.834222 2.55252 0.833333 3.26666C0.833333 4.66666 1.56375 5.90416 2.66667 6.62915C2.01322 6.61365 1.37316 6.4407 0.800833 6.12499V6.17499C0.800833 8.13332 2.2175 9.76248 4.0925 10.1333C3.73991 10.2273 3.37657 10.2749 3.01167 10.275C2.75274 10.2754 2.4944 10.2503 2.24042 10.2C2.76167 11.8041 4.27875 12.9708 6.07583 13.0041C4.61557 14.1295 2.82276 14.7378 0.979167 14.7333C0.651924 14.7328 0.324986 14.7133 0 14.675C1.87549 15.8726 4.0556 16.506 6.28083 16.5C13.8375 16.5 17.9658 10.3458 17.9658 5.00833C17.9658 4.83333 17.9613 4.65833 17.9529 4.48749C18.7542 3.91752 19.4474 3.20921 20 2.39583Z" fill="#8BAA36"/>
</svg>
