<svg width="20" height="15" viewBox="0 0 20 15" fill="none" xmlns="http://www.w3.org/2000/svg">
<path d="M19.8715 3.31202C19.8715 1.55425 18.5784 0.14023 16.9805 0.14023C14.8162 0.0390613 12.6089 0 10.3531 0H9.64989C7.39961 0 5.18839 0.0390614 3.02406 0.140621C1.43011 0.140621 0.136974 1.56246 0.136974 3.32022C0.039305 4.71042 -0.00210647 6.10101 0.000237572 7.49159C-0.00366917 8.88218 0.0406073 10.2741 0.133067 11.6673C0.133067 13.425 1.4262 14.8508 3.02015 14.8508C5.29387 14.9562 7.6262 15.0031 9.99759 14.9992C12.3729 15.007 14.6987 14.9575 16.975 14.8508C18.5729 14.8508 19.866 13.425 19.866 11.6673C19.9598 10.2728 20.0028 8.88218 19.9989 7.48769C20.0077 6.0971 19.9653 4.70521 19.8715 3.31202ZM8.0872 11.3235V3.64795L13.752 7.48378L8.0872 11.3235Z" fill="#8BAA36"/>
</svg>
