<svg width="20" height="21" viewBox="0 0 20 21" fill="none" xmlns="http://www.w3.org/2000/svg">
<path d="M14.1665 2.16652C15.2707 2.16982 16.3286 2.60989 17.1094 3.39064C17.8901 4.17138 18.3302 5.22935 18.3335 6.33348V14.6665C18.3302 15.7707 17.8901 16.8286 17.1094 17.6094C16.3286 18.3901 15.2707 18.8302 14.1665 18.8335H5.83348C4.72935 18.8302 3.67138 18.3901 2.89064 17.6094C2.10989 16.8286 1.66982 15.7707 1.66652 14.6665V6.33348C1.66982 5.22935 2.10989 4.17138 2.89064 3.39064C3.67138 2.60989 4.72935 2.16982 5.83348 2.16652H14.1665ZM14.1665 0.5H5.83348C2.625 0.5 0 3.125 0 6.33348V14.6665C0 17.875 2.625 20.5 5.83348 20.5H14.1665C17.375 20.5 20 17.875 20 14.6665V6.33348C20 3.125 17.375 0.5 14.1665 0.5Z" fill="#8BAA36"/>
<path d="M15.4165 6.3352C15.1693 6.3352 14.9276 6.26189 14.7221 6.12454C14.5165 5.98719 14.3563 5.79197 14.2617 5.56356C14.1671 5.33515 14.1423 5.08382 14.1905 4.84134C14.2388 4.59887 14.3578 4.37614 14.5326 4.20132C14.7075 4.02651 14.9302 3.90746 15.1727 3.85922C15.4151 3.81099 15.6665 3.83575 15.8949 3.93036C16.1233 4.02497 16.3185 4.18518 16.4559 4.39074C16.5932 4.5963 16.6665 4.83798 16.6665 5.08521C16.6669 5.24946 16.6348 5.41216 16.5721 5.56398C16.5094 5.71579 16.4173 5.85373 16.3012 5.96988C16.185 6.08602 16.0471 6.17808 15.8953 6.24077C15.7435 6.30347 15.5808 6.33556 15.4165 6.3352ZM10 7.16824C10.6593 7.16824 11.3038 7.36375 11.852 7.73003C12.4002 8.09632 12.8274 8.61694 13.0797 9.22605C13.332 9.83517 13.3981 10.5054 13.2694 11.1521C13.1408 11.7987 12.8233 12.3927 12.3571 12.8588C11.8909 13.325 11.297 13.6425 10.6503 13.7711C10.0037 13.8998 9.33345 13.8338 8.72433 13.5815C8.11522 13.3292 7.5946 12.9019 7.22831 12.3537C6.86203 11.8055 6.66652 11.161 6.66652 10.5017C6.66747 9.61792 7.01897 8.77058 7.64392 8.14564C8.26886 7.52069 9.1162 7.16919 10 7.16824ZM10 5.50172C9.0111 5.50172 8.0444 5.79497 7.22215 6.34437C6.39991 6.89378 5.75904 7.67467 5.3806 8.5883C5.00217 9.50193 4.90315 10.5073 5.09608 11.4772C5.289 12.4471 5.76521 13.338 6.46447 14.0373C7.16373 14.7365 8.05465 15.2127 9.02455 15.4056C9.99446 15.5986 10.9998 15.4996 11.9134 15.1211C12.827 14.7427 13.6079 14.1018 14.1574 13.2796C14.7068 12.4573 15 11.4906 15 10.5017C15 9.17564 14.4732 7.90387 13.5355 6.96619C12.5979 6.02851 11.3261 5.50172 10 5.50172Z" fill="#8BAA36"/>
</svg>
